<svg xmlns="http://www.w3.org/2000/svg" width="512" height="512" viewBox="0 0 512 512">
  <defs><linearGradient id="g" x1="0" y1="0" x2="1" y2="1"><stop offset="0" stop-color="#00b4ff"/><stop offset="1" stop-color="#7b61ff"/></linearGradient></defs>
  <rect width="512" height="512" rx="112" fill="#07111f"/>
  <circle cx="256" cy="256" r="204" fill="url(#g)" opacity=".18"/>
  <path d="M237 76v152l-61-61-32 32 76 76-76 76 32 32 61-61v114l121-121-77-60 77-60L237 76zm45 106 31 31-31 24v-55zm0 193v-62l31 24-31 38z" fill="#eaf7ff"/>
  <path d="M94 188c-27 39-39 83-36 128m360-128c27 39 39 83 36 128" fill="none" stroke="#eaf7ff" stroke-width="24" stroke-linecap="round" opacity=".55"/>
  <circle cx="256" cy="256" r="32" fill="#ff3d71"/>
  <text x="256" y="476" text-anchor="middle" font-family="Arial, sans-serif" font-size="34" font-weight="700" fill="#eaf7ff">PRO</text>
</svg>
